PathFileType	4	(X/Y/Z)	./resultDataOpenSim/trcMotMarkerGrf/sub06/qtm-12-03.trc
DataRate	CameraRate	NumFrames	NumMarkers	Units	OrigDataRate	OrigDataStartFrame	OrigNumFrames
250.000000	250.000000	12	24	m	250.000000	131	523
Frame#	Time	L.Toe.Tip			R.Toe.Tip			L.Ankle.Lat			R.Ankle.Lat			L.Ankle.Med			R.Ankle.Med			L.Heel			R.Heel			L.Knee.Lat			R.Knee.Lat			L.Knee.Med			R.Knee.Med			L.Thigh.Upper			R.Thigh.Upper			L.ASIS			R.ASIS			V.Sacral			L.Acromium			R.Acromium			C7			L.Elbow			R.Elbow			L.Wrist.Lat			R.Wrist.Lat
		X1	Y1	Z1	X2	Y2	Z2	X3	Y3	Z3	X4	Y4	Z4	X5	Y5	Z5	X6	Y6	Z6	X7	Y7	Z7	X8	Y8	Z8	X9	Y9	Z9	X10	Y10	Z10	X11	Y11	Z11	X12	Y12	Z12	X13	Y13	Z13	X14	Y14	Z14	X15	Y15	Z15	X16	Y16	Z16	X17	Y17	Z17	X18	Y18	Z18	X19	Y19	Z19	X20	Y20	Z20	X21	Y21	Z21	X22	Y22	Z22	X23	Y23	Z23	X24	Y24	Z24

131	0.52	0.0028478386	0.12136965	-0.058412647	-0.75935812	0.034773634	0.068332076	-0.12475755	0.10039232	-0.086037832	-0.8866646	0.086134408	0.083408212	-0.13350756	0.11542276	-0.0017221278	-0.85214466	0.098632682	-0.00065355879	-0.17503492	0.039201624	-0.040186688	-0.93987867	0.075583997	0.016624828	-0.27410462	0.43651704	-0.089427835	-0.67455427	0.41415907	0.12949477	-0.30817789	0.42064074	0.033339713	-0.68764322	0.41731543	-0.0031254702	-0.4673548	0.76832856	-0.14584815	-0.56501638	0.75745798	0.19064373	-0.41043631	0.8120325	-0.087233022	-0.44990321	0.80355955	0.16334328	-0.61228497	0.88508843	0.012900663	-0.50890346	1.291036	-0.15361033	-0.48123202	1.2861362	0.20472971	-0.57112725	1.3269098	0.02962217	-0.62504765	1.0007633	-0.20016179	-0.43560729	0.9746964	0.30316505	-0.54554106	0.77440014	-0.25140773	-0.19497311	0.94489933	0.24548362
132	0.524	0.0089156915	0.11826632	-0.057018743	-0.75917392	0.034830976	0.068366997	-0.11857038	0.09796116	-0.085034321	-0.88559843	0.087858878	0.084042949	-0.12748699	0.11285703	-0.00073638606	-0.85100317	0.10001663	-7.5874564e-05	-0.16943829	0.036975582	-0.039526136	-0.93911773	0.078289069	0.017557942	-0.26575433	0.43533857	-0.088883812	-0.66906855	0.41323249	0.12984429	-0.29988098	0.41993401	0.033709523	-0.68165401	0.41615406	-0.0028176464	-0.4591848	0.76693309	-0.14580287	-0.56154188	0.755309	0.18912454	-0.40253444	0.81050422	-0.086669319	-0.44316226	0.802133	0.16476873	-0.60524828	0.88369549	0.012608271	-0.50194669	1.2892159	-0.15406555	-0.47457103	1.2847192	0.20436276	-0.56426063	1.325321	0.029143552	-0.61834247	0.99916405	-0.19979568	-0.42813704	0.97347878	0.30291738	-0.5412596	0.77234655	-0.25210177	-0.18736275	0.94501529	0.24479763
133	0.528	0.014407891	0.1146955	-0.055611699	-0.75895966	0.034924804	0.068423487	-0.11296825	0.095256506	-0.084051305	-0.88434499	0.089715094	0.084759234	-0.12206098	0.11001981	0.00023555025	-0.8497043	0.10153386	0.00053920004	-0.16452957	0.034566515	-0.038900946	-0.93813128	0.081143827	0.018382396	-0.25737687	0.43421519	-0.088387049	-0.66330324	0.41235989	0.13028034	-0.29149259	0.4193401	0.034004884	-0.67552321	0.41500538	-0.0024869145	-0.45094982	0.76566441	-0.14575343	-0.55795708	0.75317921	0.18764748	-0.39464688	0.80907845	-0.0861105	-0.43633619	0.80078332	0.16607972	-0.59834931	0.88237426	0.012511119	-0.49491298	1.2874434	-0.1545548	-0.46795101	1.2833712	0.20396366	-0.55734948	1.3237777	0.028626632	-0.61159522	0.99760343	-0.19943196	-0.42079849	0.97230649	0.30261057	-0.53687829	0.77035911	-0.25278498	-0.17986493	0.94503569	0.24413876
134	0.532	0.01933958	0.1106897	-0.054209904	-0.7587033	0.035053929	0.068522112	-0.10792424	0.092294878	-0.083067676	-0.88285952	0.091709505	0.085561779	-0.11722752	0.10695313	0.0012182039	-0.84825685	0.10316715	0.0012018202	-0.1602637	0.031985882	-0.038256643	-0.93693366	0.084157991	0.019161088	-0.24896503	0.4331501	-0.0879305	-0.65741787	0.41152266	0.13074739	-0.28298185	0.41884342	0.034252763	-0.66925548	0.41385985	-0.0021255344	-0.44264199	0.76451039	-0.14570495	-0.55356211	0.75122765	0.18648057	-0.38674455	0.80775693	-0.085558119	-0.42942817	0.799512	0.16714007	-0.59136071	0.88105608	0.012583388	-0.48778859	1.2857013	-0.15505804	-0.46140018	1.2820887	0.20354089	-0.550391	1.3222734	0.02806964	-0.60480801	0.99608491	-0.19909576	-0.41358007	0.97117053	0.30226567	-0.53247265	0.7684215	-0.25346873	-0.17247542	0.94495188	0.24351163
135	0.536	0.023732068	0.10629161	-0.052826951	-0.75840351	0.03518889	0.068663316	-0.103406	0.089090308	-0.082074658	-0.8810789	0.093864401	0.086439552	-0.11294545	0.10369434	0.0022283238	-0.84668977	0.10488833	0.0019194796	-0.1565975	0.029246846	-0.037565445	-0.93555828	0.087335813	0.019974623	-0.24053075	0.43213796	-0.087508745	-0.65151652	0.41069015	0.1312076	-0.27433524	0.41842564	0.034472758	-0.66289432	0.41271419	-0.0017322322	-0.43422699	0.76345359	-0.14565	-0.5482667	0.74946121	0.18565097	-0.37872764	0.80655654	-0.084985594	-0.42242365	0.79832582	0.16781635	-0.58398767	0.87967194	0.012673852	-0.48055322	1.2839749	-0.15557825	-0.45487567	1.2808622	0.20309311	-0.54338223	1.3208082	0.027472982	-0.59792686	0.99460193	-0.19880775	-0.40645724	0.97005879	0.30189078	-0.52803014	0.7665343	-0.25415115	-0.16518129	0.9447565	0.2429205
136	0.54	0.027611369	0.10154932	-0.051473263	-0.75807591	0.03528756	0.06881977	-0.09939263	0.085665511	-0.0810835	-0.87904972	0.096188023	0.087357213	-0.10913423	0.1002826	0.0032561406	-0.8450157	0.10668447	0.0026919276	-0.15349273	0.026375402	-0.036834709	-0.93402724	0.09069937	0.02085959	-0.23210125	0.43117528	-0.087123485	-0.64558909	0.40984476	0.13166224	-0.26560953	0.41806709	0.034650063	-0.65646889	0.41157213	-0.0013174557	-0.42569743	0.76247558	-0.14556617	-0.54222904	0.74783428	0.18508054	-0.3704635	0.80549454	-0.084356381	-0.4152732	0.79723412	0.16802575	-0.57599435	0.87817745	0.012586307	-0.47317131	1.2822579	-0.15612779	-0.44828747	1.2796899	0.20261586	-0.53632375	1.319379	0.026835782	-0.59085943	0.99314785	-0.1985699	-0.39941387	0.96896199	0.30147836	-0.52348501	0.76470921	-0.25481915	-0.15797962	0.94445215	0.24236872
137	0.544	0.031005736	0.096511672	-0.050160468	-0.7577327	0.035338278	0.068963054	-0.09586468	0.082057502	-0.080109813	-0.87692963	0.098651959	0.088273018	-0.10572694	0.096756832	0.0042656311	-0.84321327	0.10857009	0.0035235932	-0.1509125	0.02341161	-0.036086384	-0.93235703	0.094285753	0.021819797	-0.22370396	0.430262	-0.086778739	-0.63960896	0.40898386	0.13212072	-0.25689946	0.41774747	0.034755076	-0.64994775	0.41043679	-0.00089200417	-0.41705922	0.76157332	-0.14544112	-0.53555579	0.74632266	0.18471167	-0.36191957	0.80456619	-0.08365528	-0.40789802	0.7962347	0.16781836	-0.56737737	0.87658948	0.012174472	-0.4656347	1.280565	-0.15670913	-0.4415803	1.2785797	0.20210733	-0.52921875	1.3179763	0.026154874	-0.58360008	0.99173734	-0.19833842	-0.39245311	0.96787982	0.30102179	-0.51877905	0.76296386	-0.25545836	-0.15087733	0.94404857	0.24185713
138	0.548	0.033947533	0.091225027	-0.048900666	-0.75736565	0.035368678	0.069089759	-0.092792194	0.078307449	-0.079160077	-0.87483685	0.10120221	0.089172307	-0.10268877	0.093146125	0.0052287258	-0.84124659	0.11056157	0.0044220588	-0.14881224	0.020396358	-0.035323626	-0.93050928	0.098096776	0.022808412	-0.21536136	0.42938723	-0.086478696	-0.63358043	0.40810639	0.13259021	-0.24825475	0.41744566	0.034784673	-0.64323839	0.40931155	-0.00044437692	-0.40830726	0.76075662	-0.14527922	-0.52829951	0.74491814	0.18451578	-0.3532317	0.80373924	-0.082914355	-0.40027652	0.7952855	0.16739874	-0.55845959	0.87500327	0.011433026	-0.4579966	1.2789262	-0.15731439	-0.43476842	1.2775383	0.20156902	-0.52207181	1.3165948	0.025428463	-0.57630566	0.99041069	-0.19802059	-0.38559128	0.96682062	0.3005278	-0.51388996	0.7613133	-0.25606003	-0.14387749	0.94355003	0.24138152
139	0.552	0.036471988	0.085731073	-0.047704259	-0.7569564	0.035406025	0.069214744	-0.090140153	0.07444778	-0.078229143	-0.8727466	0.10379327	0.090079234	-0.099983248	0.089469435	0.0061484692	-0.8390929	0.11264649	0.0053861201	-0.14714068	0.017354768	-0.034525937	-0.92837537	0.10207948	0.023734441	-0.20710284	0.42851593	-0.086231123	-0.62748992	0.40721033	0.1330859	-0.23964293	0.41713342	0.034776347	-0.63622609	0.40820488	6.6875446e-05	-0.3994423	0.76002084	-0.14508668	-0.5205054	0.74361341	0.1844735	-0.34456126	0.80297164	-0.082196803	-0.39255786	0.79429649	0.1669905	-0.54969375	0.87353475	0.010526018	-0.45032211	1.2773573	-0.15793492	-0.42789628	1.276561	0.20100198	-0.51488543	1.3152368	0.02465679	-0.56913835	0.98919715	-0.19756406	-0.37884289	0.96579417	0.30000992	-0.50882992	0.75975767	-0.25662767	-0.13697767	0.94295108	0.24093398
140	0.556	0.038604147	0.080076331	-0.046572521	-0.75649643	0.035449337	0.069350323	-0.08787519	0.070498598	-0.077300643	-0.87055505	0.10641579	0.09102773	-0.097572698	0.085741894	0.0070454677	-0.83673618	0.11479609	0.0064076433	-0.14586053	0.014289576	-0.03367885	-0.92587925	0.10617455	0.024558921	-0.19897308	0.42760455	-0.086037139	-0.6211785	0.40633168	0.13365443	-0.2309836	0.41677156	0.034787896	-0.62888161	0.40711693	0.00067601013	-0.39048069	0.75933817	-0.14486138	-0.51222733	0.74239781	0.18456434	-0.33593593	0.8022361	-0.081542313	-0.38496562	0.79319405	0.16669051	-0.54129237	0.8722238	0.0096847585	-0.44262727	1.2758497	-0.15856855	-0.42099526	1.2756339	0.20040338	-0.5076597	1.3139039	0.023842227	-0.56204584	0.98807318	-0.1970807	-0.37220588	0.96480351	0.29947298	-0.50362799	0.75828108	-0.25717733	-0.13017604	0.94224438	0.24051046
141	0.56	0.040345433	0.074324311	-0.045481851	-0.75599374	0.035483858	0.069496485	-0.085972589	0.066471018	-0.076361613	-0.86818787	0.10909217	0.092031003	-0.095461237	0.081969636	0.0079350338	-0.83414704	0.11700092	0.0074833902	-0.14497912	0.011194647	-0.032805418	-0.92303827	0.11035475	0.025341805	-0.19101532	0.42663303	-0.085871152	-0.61432843	0.40555878	0.13437789	-0.22224032	0.41631755	0.034850539	-0.62133315	0.40602057	0.0013664926	-0.38141697	0.7586824	-0.14459774	-0.50352691	0.74125815	0.18476471	-0.32728239	0.80152558	-0.08094614	-0.37755604	0.7919974	0.16649803	-0.53313034	0.87101814	0.0090424171	-0.43489259	1.2743914	-0.15922	-0.41407592	1.2747476	0.19976778	-0.50039827	1.3125927	0.022991492	-0.55480474	0.9869788	-0.19680317	-0.36566544	0.96384371	0.29891633	-0.49830385	0.75686691	-0.2577268	-0.1234732	0.94142777	0.24011481
142	0.564	0.041685757	0.068529582	-0.04438131	-0.75546541	0.03550466	0.069642749	-0.08442833	0.062378083	-0.075436906	-0.86562933	0.11185121	0.093083053	-0.093696194	0.07814075	0.0088252165	-0.83129414	0.11927244	0.0086158837	-0.14455167	0.0081166072	-0.031976491	-0.91989407	0.11462205	0.026158144	-0.1832507	0.42560087	-0.085693156	-0.60681504	0.40491726	0.13529652	-0.21348059	0.41573329	0.034942626	-0.61375277	0.40487589	0.0020974782	-0.37219728	0.75804797	-0.14429011	-0.49446868	0.74018041	0.18504926	-0.31853639	0.80083957	-0.080390379	-0.37021043	0.7907926	0.16640056	-0.5249919	0.86984827	0.0085745027	-0.4271098	1.2729814	-0.15989285	-0.407141	1.2739071	0.19909248	-0.4931097	1.3112974	0.02211321	-0.54729477	0.98588474	-0.19682975	-0.35921037	0.96291	0.29834491	-0.49285269	0.75551309	-0.25828461	-0.11687265	0.94050337	0.23975561
